<svg xmlns:dc="http://purl.org/dc/elements/1.1/" xmlns:cc="http://creativecommons.org/ns#" xmlns:rdf="http://www.w3.org/1999/02/22-rdf-syntax-ns#" xmlns:svg="http://www.w3.org/2000/svg" xmlns="http://www.w3.org/2000/svg" xmlns:xlink="http://www.w3.org/1999/xlink" id="svg23509" viewBox="0 0 1024 768" height="768px" width="1024px" version="1.1">
  <metadata id="metadata23515">
    <rdf:rdf>
      <cc:work rdf:about="">
        <dc:format>image/svg+xml</dc:format>
        <dc:type rdf:resource="http://purl.org/dc/dcmitype/StillImage"></dc:type>
      </cc:work>
    </rdf:rdf>
  </metadata>
  <defs id="defs23513"></defs>
  <g id="logo-group">
    <image xlink:href="../nounpreview/228620.png" id="icon" width="200" height="200" x="412" y="0" style="display: none;"></image>
    <g id="title" style="font-style:normal;font-weight:700;font-size:72px;line-height:1;font-family:'Brandmark1 Bold';font-variant-ligatures:none;text-align:center;text-anchor:middle" aria-label="ligit">
      <path id="path23517" style="font-style: normal; font-weight: 700; font-size: 72px; line-height: 1; font-family: &quot;Brandmark1 Bold&quot;; font-variant-ligatures: none; text-align: center; text-anchor: middle; fill: rgb(255, 255, 255);" d="m 454.42306,2.52 h 10.872 v -58.032 l -10.872,3.6 z" transform="translate(0 347.1868143290934) translate(252.00000000000006 -97.0378502781301) scale(3.6487579312244214) translate(-454.42306 55.512)"></path>
      <path id="path23519" style="font-style: normal; font-weight: 700; font-size: 72px; line-height: 1; font-family: &quot;Brandmark1 Bold&quot;; font-variant-ligatures: none; text-align: center; text-anchor: middle; fill: rgb(255, 255, 255);" d="m 472.00119,2.52 h 10.872 v -41.544 l -10.872,3.6 z" transform="translate(0 347.1868143290934) translate(338.0308888409404 -36.87712950810183) scale(3.6487579312244214) translate(-472.00119 39.024)"></path>
      <path id="path23521" style="font-style: normal; font-weight: 700; font-size: 72px; line-height: 1; font-family: &quot;Brandmark1 Bold&quot;; font-variant-ligatures: none; text-align: center; text-anchor: middle; fill: rgb(255, 255, 255);" d="m 521.11531,-32.112 c -3.816,-3.816 -8.928,-5.904 -14.256,-5.904 -5.4,0 -10.512,2.088 -14.328,5.904 -3.816,3.816 -5.904,8.856 -5.904,14.256 0,5.4 2.088,10.44 5.904,14.256 3.816,3.816 8.928,5.904 14.328,5.904 3.168,0 6.264,-0.72 9,-2.088 -1.08,3.96 -4.752,6.84 -9,6.84 -2.448,0 -4.752,-0.936 -6.48,-2.592 l -7.488,7.848 c 3.816,3.6 8.712,5.544 13.896,5.544 5.4,0 10.512,-2.088 14.328,-5.904 3.816,-3.816 5.904,-8.856 5.904,-14.256 v -15.552 c 0,-5.4 -2.088,-10.44 -5.904,-14.256 z m -14.256,23.616 c -5.184,0 -9.432,-4.176 -9.432,-9.36 0,-5.184 4.248,-9.432 9.432,-9.432 5.184,0 9.36,4.248 9.36,9.432 0,5.184 -4.248,9.36 -9.36,9.36 z" transform="translate(0 347.1868143290934) translate(413.290607781327 -33.19918151342759) scale(3.6487579312244214) translate(-486.62731 38.016)"></path>
      <path id="path23523" style="font-style: normal; font-weight: 700; font-size: 72px; line-height: 1; font-family: &quot;Brandmark1 Bold&quot;; font-variant-ligatures: none; text-align: center; text-anchor: middle; fill: rgb(255, 255, 255);" d="m 532.75119,2.52 h 10.872 v -41.544 l -10.872,3.6 z" transform="translate(0 347.1868143290934) translate(603.4780283375168 -36.87712950810183) scale(3.6487579312244214) translate(-532.75119 39.024)"></path>
      <path id="path23525" style="font-style: normal; font-weight: 700; font-size: 72px; line-height: 1; font-family: &quot;Brandmark1 Bold&quot;; font-variant-ligatures: none; text-align: center; text-anchor: middle; fill: rgb(255, 255, 255);" d="m 572.93731,-27.504 v -10.08 h -11.448 v -12.888 l -10.8,3.6 v 27.936 c 0,3.024 0.576,5.904 1.728,8.64 1.08,2.664 2.736,5.04 4.752,7.056 2.016,2.088 4.392,3.672 7.056,4.824 2.736,1.152 5.688,1.728 8.712,1.728 v -10.8 c -6.336,0 -11.448,-5.112 -11.448,-11.448 v -8.568 z" transform="translate(0 347.1868143290934) translate(690.822433546119 -78.648110304759) scale(3.6487579312244214) translate(-550.68931 50.472)"></path>
    </g>
    <g id="tagline" style="font-style:normal;font-weight:400;font-size:32px;line-height:1;font-family:Montserrat;font-variant-ligatures:none;text-align:center;text-anchor:middle"></g>
  </g>
</svg>
