<svg xmlns:dc="http://purl.org/dc/elements/1.1/" xmlns:cc="http://creativecommons.org/ns#" xmlns:rdf="http://www.w3.org/1999/02/22-rdf-syntax-ns#" xmlns:svg="http://www.w3.org/2000/svg" xmlns="http://www.w3.org/2000/svg" xmlns:xlink="http://www.w3.org/1999/xlink" id="svg5417" viewBox="0 0 1024 768" height="768px" width="1024px" version="1.1">
  <metadata id="metadata5423">
    <rdf:rdf>
      <cc:work rdf:about="">
        <dc:format>image/svg+xml</dc:format>
        <dc:type rdf:resource="http://purl.org/dc/dcmitype/StillImage"></dc:type>
      </cc:work>
    </rdf:rdf>
  </metadata>
  <defs id="defs5421"></defs>
  <g id="logo-group">
    <image xlink:href="../nounpreview/1977841.png" id="icon" width="200" height="200" x="412" y="0" style="display: none;"></image>
    <g id="title" style="font-style:normal;font-weight:700;font-size:72px;line-height:1;font-family:'Comfortaa Bold Alt1';font-variant-ligatures:none;text-align:center;text-anchor:middle" aria-label="letz git it">
      <path id="path5425" style="font-style: normal; font-weight: 700; font-size: 72px; line-height: 1; font-family: &quot;Comfortaa Bold Alt1&quot;; font-variant-ligatures: none; text-align: center; text-anchor: middle; fill: rgb(28, 104, 244);" d="m 356.048,-55.224 c -0.72,0.72 -1.008,1.584 -1.008,2.592 v 39.312 c 0,2.592 0.432,4.896 1.368,6.912 0.864,2.016 2.16,3.6 3.816,4.752 C 361.88,-0.504 363.752,0 365.84,0 h 0.144 c 1.44,0 2.592,-0.288 3.528,-1.008 0.864,-0.648 1.368,-1.512 1.368,-2.592 0,-1.008 -0.36,-1.872 -0.936,-2.592 C 369.368,-6.84 368.576,-7.2 367.64,-7.2 h -1.8 c -1.08,0 -1.944,-0.576 -2.592,-1.728 -0.72,-1.152 -1.008,-2.592 -1.008,-4.392 v -39.312 c 0,-1.008 -0.36,-1.872 -1.008,-2.592 -0.72,-0.648 -1.584,-1.008 -2.592,-1.008 -1.08,0 -1.944,0.36 -2.592,1.008 z" transform="translate(0 286.1445727675481) translate(251.99999999999994 24.206858161184087) scale(1.4586915250892003) translate(-355.04 56.232)"></path>
      <path id="path5427" style="font-style: normal; font-weight: 700; font-size: 72px; line-height: 1; font-family: &quot;Comfortaa Bold Alt1&quot;; font-variant-ligatures: none; text-align: center; text-anchor: middle; fill: rgb(28, 104, 244);" d="m 410.44288,-18 c 0.57599,-0.576 0.93599,-1.368 0.93599,-2.304 0,-3.744 -0.71999,-7.128 -2.15999,-10.08 -1.44001,-2.88 -3.52801,-5.184 -6.192,-6.84 -2.736,-1.584 -5.904,-2.448 -9.57601,-2.448 -3.74399,0 -7.128,0.864 -10.08,2.592 -2.95199,1.728 -5.256,4.104 -6.912,7.128 -1.656,3.024 -2.448,6.48 -2.448,10.296 0,3.888 0.864,7.272 2.592,10.296 1.728,3.024 4.176,5.4 7.344,7.128 3.096,1.728 6.624,2.52 10.584,2.52 2.16,0 4.464,-0.36 6.91201,-1.224 2.44799,-0.792 4.464,-1.872 6.12,-3.168 0.71999,-0.576 1.15199,-1.296 1.15199,-2.16 0,-0.864 -0.432,-1.728 -1.29599,-2.448 -0.57601,-0.432 -1.296,-0.72 -2.16001,-0.72 -0.936,0 -1.728,0.288 -2.37599,0.792 -1.00801,0.792 -2.30401,1.44 -3.88801,1.944 -1.584,0.576 -3.024,0.792 -4.464,0.792 -3.672,0 -6.768,-1.008 -9.28799,-3.096 -2.52001,-2.016 -4.03201,-4.752 -4.536,-8.136 h 27.35999 c 0.93601,0 1.728,-0.288 2.37601,-0.864 z m -25.56,-12.6 c 2.15999,-1.872 5.03999,-2.88 8.56799,-2.88 3.168,0 5.688,1.008 7.704,2.88 1.94401,1.944 3.168,4.536 3.6,7.704 h -23.976 c 0.576,-3.168 1.944,-5.76 4.10401,-7.704 z" transform="translate(0 286.1445727675481) translate(286.96610491801493 48.36278981666125) scale(1.4586915250892003) translate(-374.01087 39.672)"></path>
      <path id="path5429" style="font-style: normal; font-weight: 700; font-size: 72px; line-height: 1; font-family: &quot;Comfortaa Bold Alt1&quot;; font-variant-ligatures: none; text-align: center; text-anchor: middle; fill: rgb(28, 104, 244);" d="m 422.40163,-37.944 v 6.192 17.784 c 0,2.664 0.50399,5.04 1.656,7.128 1.08,2.16 2.592,3.816 4.53599,5.04 1.944,1.224 4.10401,1.8 6.48,1.8 h 1.296 c 1.224,0 2.23201,-0.288 3.024,-1.008 0.79201,-0.648 1.224,-1.512 1.224,-2.592 0,-1.008 -0.35999,-1.872 -0.936,-2.592 -0.57599,-0.648 -1.296,-1.008 -2.16,-1.008 h -2.448 c -1.584,0 -2.88,-0.648 -3.88799,-1.944 -1.08001,-1.296 -1.584,-2.88 -1.584,-4.824 v -17.784 h 6.12 c 1.00799,0 1.79999,-0.288 2.44799,-0.864 0.57601,-0.576 0.93601,-1.296 0.93601,-2.16 0,-0.936 -0.36,-1.728 -0.93601,-2.304 -0.648,-0.576 -1.44,-0.864 -2.44799,-0.864 h -6.12 v -10.368 c 0,-1.008 -0.36001,-1.872 -1.00801,-2.592 -0.72,-0.648 -1.58399,-1.008 -2.592,-1.008 -1.08,0 -1.94399,0.36 -2.592,1.008 -0.72,0.72 -1.00799,1.584 -1.00799,2.592 z" transform="translate(0 286.1445727675481) translate(364.8467540480864 30.50840554956943) scale(1.4586915250892003) translate(-422.40163 51.912)"></path>
      <path id="path5431" style="font-style: normal; font-weight: 700; font-size: 72px; line-height: 1; font-family: &quot;Comfortaa Bold Alt1&quot;; font-variant-ligatures: none; text-align: center; text-anchor: middle; fill: rgb(28, 104, 244);" d="m 479.09375,-3.384 c 0,-2.232 -1.152,-3.384 -3.384,-3.384 h -18.288 l 20.304,-26.928 c 0.432,-0.576 0.648,-1.296 0.648,-2.304 0,-2.232 -1.152,-3.384 -3.384,-3.384 h -24.552 c -2.304,0 -3.384,1.152 -3.384,3.384 0,2.304 1.08,3.384 3.384,3.384 h 18.36 l -20.376,26.928 c -0.432,0.576 -0.648,1.368 -0.648,2.304 0,2.304 1.08,3.384 3.384,3.384 h 24.552 c 2.232,0 3.384,-1.08 3.384,-3.384 z" transform="translate(0 286.1445727675481) translate(408.10005019301434 48.78289297588693) scale(1.4586915250892003) translate(-447.05375 39.384)"></path>
      <path id="path5433" style="font-style: normal; font-weight: 700; font-size: 72px; line-height: 1; font-family: &quot;Comfortaa Bold Alt1&quot;; font-variant-ligatures: none; text-align: center; text-anchor: middle; fill: rgb(28, 104, 244);" d="m 537.488,-37.08 c -3.024,-1.728 -6.408,-2.592 -10.152,-2.592 -3.888,0 -7.272,0.864 -10.296,2.592 -3.024,1.728 -5.4,4.032 -7.056,7.056 -1.728,3.024 -2.52,6.48 -2.52,10.368 0,3.888 0.72,7.272 2.304,10.296 1.584,3.024 3.744,5.4 6.552,7.128 2.808,1.728 5.976,2.52 9.576,2.52 3.024,0 5.832,-0.72 8.28,-2.232 2.448,-1.44 4.392,-3.528 5.904,-6.192 v 3.528 c 0,3.024 -0.576,5.688 -1.728,7.848 -1.152,2.16 -2.736,3.816 -4.608,4.968 -1.944,1.152 -4.104,1.656 -6.408,1.656 -2.52,0 -4.752,-0.432 -6.696,-1.296 -2.016,-0.864 -3.6,-2.16 -4.896,-3.888 -0.792,-1.008 -1.8,-1.512 -2.952,-1.512 -0.72,0 -1.368,0.216 -2.016,0.648 -1.008,0.72 -1.512,1.584 -1.512,2.592 0,0.72 0.216,1.368 0.792,2.016 2.016,2.592 4.464,4.536 7.488,5.904 2.952,1.368 6.192,2.016 9.648,2.016 3.816,0 7.272,-0.864 10.296,-2.664 3.024,-1.8 5.4,-4.248 7.128,-7.416 1.656,-3.096 2.52,-6.552 2.52,-10.368 v -15.552 c 0,-3.888 -0.864,-7.344 -2.592,-10.368 -1.728,-3.024 -4.032,-5.328 -7.056,-7.056 z m -3.6,29.16 c -1.944,1.152 -4.104,1.728 -6.552,1.728 -2.448,0 -4.68,-0.576 -6.624,-1.728 -1.944,-1.152 -3.456,-2.736 -4.536,-4.752 -1.152,-2.016 -1.656,-4.392 -1.656,-6.984 0,-2.592 0.504,-4.896 1.656,-6.984 1.08,-2.016 2.592,-3.672 4.536,-4.824 1.944,-1.152 4.176,-1.728 6.624,-1.728 2.448,0 4.608,0.576 6.552,1.728 1.944,1.152 3.456,2.808 4.536,4.824 1.08,2.088 1.656,4.392 1.656,6.984 0,2.592 -0.576,4.968 -1.656,6.984 -1.08,2.016 -2.592,3.6 -4.536,4.752 z" transform="translate(0 286.1445727675481) translate(503.5134275219802 48.36278981666125) scale(1.4586915250892003) translate(-507.464 39.672)"></path>
      <path id="path5435" style="font-style: normal; font-weight: 700; font-size: 72px; line-height: 1; font-family: &quot;Comfortaa Bold Alt1&quot;; font-variant-ligatures: none; text-align: center; text-anchor: middle; fill: rgb(28, 104, 244);" d="m 559.86425,-38.376 c -0.72,0.72 -1.008,1.584 -1.008,2.664 v 32.04 c 0,1.08 0.288,1.944 1.008,2.664 0.72,0.72 1.584,1.008 2.664,1.008 1.08,0 1.944,-0.288 2.664,-1.008 0.648,-0.72 1.008,-1.584 1.008,-2.664 v -32.04 c 0,-1.08 -0.36,-1.944 -1.008,-2.664 -0.72,-0.648 -1.584,-1.008 -2.664,-1.008 -1.08,0 -1.944,0.36 -2.664,1.008 z" transform="translate(0 286.1445727675481) translate(585.7723246776918 48.78289297588693) scale(1.4586915250892003) translate(-558.85625 39.384)"></path>
      <path id="path5437" style="font-style: normal; font-weight: 700; font-size: 72px; line-height: 1; font-family: &quot;Comfortaa Bold Alt1&quot;; font-variant-ligatures: none; text-align: center; text-anchor: middle; fill: rgb(28, 104, 244);" d="m 581.58912,-37.944 v 6.192 17.784 c 0,2.664 0.504,5.04 1.65601,7.128 1.07999,2.16 2.592,3.816 4.53599,5.04 1.94401,1.224 4.10401,1.8 6.48,1.8 h 1.29601 c 1.22399,0 2.232,-0.288 3.024,-1.008 0.79199,-0.648 1.22399,-1.512 1.22399,-2.592 0,-1.008 -0.36,-1.872 -0.936,-2.592 -0.57599,-0.648 -1.296,-1.008 -2.16,-1.008 h -2.448 c -1.58399,0 -2.88,-0.648 -3.888,-1.944 -1.07999,-1.296 -1.58399,-2.88 -1.58399,-4.824 v -17.784 h 6.12 c 1.00799,0 1.79999,-0.288 2.44799,-0.864 0.57601,-0.576 0.93601,-1.296 0.93601,-2.16 0,-0.936 -0.36,-1.728 -0.93601,-2.304 -0.648,-0.576 -1.44,-0.864 -2.44799,-0.864 h -6.12 v -10.368 c 0,-1.008 -0.36001,-1.872 -1.00801,-2.592 -0.72,-0.648 -1.58399,-1.008 -2.592,-1.008 -1.08,0 -1.94399,0.36 -2.592,1.008 -0.72,0.72 -1.008,1.584 -1.008,2.592 z" transform="translate(0 286.1445727675481) translate(626.2260271130922 30.50840554956943) scale(1.4586915250892003) translate(-581.58912 51.912)"></path>
      <path id="path5439" style="font-style: normal; font-weight: 700; font-size: 72px; line-height: 1; font-family: &quot;Comfortaa Bold Alt1&quot;; font-variant-ligatures: none; text-align: center; text-anchor: middle; fill: rgb(28, 104, 244);" d="m 631.583,-38.376 c -0.72,0.72 -1.008,1.584 -1.008,2.664 v 32.04 c 0,1.08 0.288,1.944 1.008,2.664 0.72,0.72 1.584,1.008 2.664,1.008 1.08,0 1.944,-0.288 2.664,-1.008 0.648,-0.72 1.008,-1.584 1.008,-2.664 v -32.04 c 0,-1.08 -0.36,-1.944 -1.008,-2.664 -0.72,-0.648 -1.584,-1.008 -2.664,-1.008 -1.08,0 -1.944,0.36 -2.664,1.008 z" transform="translate(0 286.1445727675481) translate(704.9747727435749 48.78289297588693) scale(1.4586915250892003) translate(-630.575 39.384)"></path>
      <path id="path5441" style="font-style: normal; font-weight: 700; font-size: 72px; line-height: 1; font-family: &quot;Comfortaa Bold Alt1&quot;; font-variant-ligatures: none; text-align: center; text-anchor: middle; fill: rgb(28, 104, 244);" d="m 653.30787,-37.944 v 6.192 17.784 c 0,2.664 0.504,5.04 1.65601,7.128 1.07999,2.16 2.592,3.816 4.53599,5.04 1.94401,1.224 4.10401,1.8 6.48,1.8 h 1.29601 c 1.22399,0 2.232,-0.288 3.024,-1.008 0.79199,-0.648 1.22399,-1.512 1.22399,-2.592 0,-1.008 -0.36,-1.872 -0.936,-2.592 -0.57599,-0.648 -1.296,-1.008 -2.16,-1.008 h -2.448 c -1.58399,0 -2.88,-0.648 -3.888,-1.944 -1.07999,-1.296 -1.58399,-2.88 -1.58399,-4.824 v -17.784 h 6.12 c 1.00799,0 1.79999,-0.288 2.44799,-0.864 0.57601,-0.576 0.93601,-1.296 0.93601,-2.16 0,-0.936 -0.36,-1.728 -0.93601,-2.304 -0.648,-0.576 -1.44,-0.864 -2.44799,-0.864 h -6.12 v -10.368 c 0,-1.008 -0.36001,-1.872 -1.00801,-2.592 -0.72,-0.648 -1.58399,-1.008 -2.592,-1.008 -1.08,0 -1.94399,0.36 -2.592,1.008 -0.72,0.72 -1.008,1.584 -1.008,2.592 z" transform="translate(0 286.1445727675481) translate(745.4284751789753 30.50840554956943) scale(1.4586915250892003) translate(-653.30787 51.912)"></path>
    </g>
    <g id="tagline" style="font-style:normal;font-weight:500;font-size:32px;line-height:1;font-family:Raleway;font-variant-ligatures:none;text-align:center;text-anchor:middle" aria-label="Open Source Projects Of The Week Newsletter">
      <path id="path5444" style="font-style: normal; font-weight: 500; font-size: 32px; line-height: 1; font-family: Raleway; font-variant-ligatures: none; text-align: center; text-anchor: middle; fill: rgb(28, 104, 244);" d="m 174.4985,0.16 q -2.4,0 -4.384,-0.96 -1.952,-0.992 -3.36,-2.592 -1.408,-1.632 -2.176,-3.712 -0.768,-2.08 -0.768,-4.256 0,-2.272 0.8,-4.352 0.832,-2.08 2.272,-3.68 1.44,-1.6 3.392,-2.528 1.984,-0.96 4.288,-0.96 2.4,0 4.352,1.024 1.952,0.992 3.36,2.624 1.408,1.632 2.176,3.712 0.768,2.048 0.768,4.192 0,2.272 -0.832,4.352 -0.8,2.08 -2.24,3.68 -1.408,1.568 -3.392,2.528 -1.952,0.928 -4.256,0.928 z m -7.776,-11.52 q 0,1.728 0.544,3.36 0.576,1.6 1.6,2.848 1.024,1.248 2.464,1.984 1.44,0.736 3.2,0.736 1.824,0 3.264,-0.768 1.44,-0.8 2.432,-2.048 1.024,-1.28 1.536,-2.88 0.544,-1.6 0.544,-3.232 0,-1.728 -0.576,-3.328 -0.544,-1.632 -1.6,-2.848 -1.024,-1.248 -2.464,-1.984 -1.408,-0.736 -3.136,-0.736 -1.824,0 -3.264,0.768 -1.44,0.768 -2.464,2.016 -0.992,1.248 -1.536,2.848 -0.544,1.6 -0.544,3.264 z" transform="translate(0 379.13390668956583) translate(252.00000000000006 57.45096900039013) scale(0.7093107954374943) translate(-163.8105 22.88)"></path>
      <path id="path5446" style="font-style: normal; font-weight: 500; font-size: 32px; line-height: 1; font-family: Raleway; font-variant-ligatures: none; text-align: center; text-anchor: middle; fill: rgb(28, 104, 244);" d="m 197.5765,0.32 q -2.08,0 -3.68,-1.024 -1.568,-1.024 -2.496,-2.592 V 6.816 h -2.816 v -23.52 h 2.496 v 3.136 q 0.992,-1.536 2.56,-2.464 1.6,-0.96 3.52,-0.96 1.728,0 3.168,0.704 1.44,0.704 2.496,1.92 1.056,1.184 1.632,2.752 0.608,1.568 0.608,3.264 0,1.792 -0.544,3.392 -0.544,1.568 -1.536,2.752 -0.992,1.152 -2.368,1.856 -1.376,0.672 -3.04,0.672 z m -0.864,-2.432 q 1.248,0 2.24,-0.512 1.024,-0.544 1.728,-1.408 0.736,-0.896 1.12,-2.016 0.384,-1.12 0.384,-2.304 0,-1.248 -0.448,-2.368 -0.448,-1.152 -1.216,-1.984 -0.768,-0.864 -1.824,-1.344 -1.024,-0.512 -2.24,-0.512 -0.768,0 -1.6,0.32 -0.8,0.288 -1.536,0.8 -0.704,0.48 -1.248,1.184 -0.512,0.672 -0.672,1.44 v 4.768 q 0.352,0.832 0.896,1.568 0.544,0.704 1.248,1.248 0.704,0.512 1.504,0.832 0.8,0.288 1.664,0.288 z" transform="translate(0 379.13390668956583) translate(270.28177644160604 61.627390963926096) scale(0.7093107954374943) translate(-188.5845 16.992)"></path>
      <path id="path5448" style="font-style: normal; font-weight: 500; font-size: 32px; line-height: 1; font-family: Raleway; font-variant-ligatures: none; text-align: center; text-anchor: middle; fill: rgb(28, 104, 244);" d="m 215.914,0.32 q -1.888,0 -3.456,-0.672 -1.568,-0.704 -2.688,-1.888 -1.12,-1.184 -1.76,-2.752 -0.608,-1.6 -0.608,-3.36 0,-1.76 0.608,-3.328 0.64,-1.568 1.76,-2.752 1.152,-1.184 2.72,-1.856 1.568,-0.704 3.456,-0.704 1.888,0 3.424,0.704 1.568,0.704 2.656,1.888 1.088,1.152 1.664,2.72 0.608,1.536 0.608,3.2 0,0.352 -0.032,0.64 0,0.288 -0.032,0.448 h -13.856 q 0.096,1.248 0.576,2.272 0.48,1.024 1.248,1.76 0.768,0.736 1.728,1.152 0.992,0.416 2.08,0.416 0.768,0 1.504,-0.192 0.736,-0.224 1.376,-0.576 0.64,-0.352 1.12,-0.864 0.512,-0.512 0.768,-1.152 l 2.432,0.672 q -0.416,0.928 -1.152,1.696 -0.704,0.768 -1.664,1.344 -0.928,0.544 -2.08,0.864 -1.152,0.32 -2.4,0.32 z m 5.728,-9.792 q -0.096,-1.184 -0.608,-2.176 -0.48,-1.024 -1.248,-1.728 -0.736,-0.704 -1.728,-1.088 -0.992,-0.416 -2.112,-0.416 -1.12,0 -2.112,0.416 -0.992,0.384 -1.76,1.12 -0.736,0.704 -1.216,1.696 -0.448,0.992 -0.544,2.176 z" transform="translate(0 379.13390668956583) translate(284.33854313018855 61.627390963926096) scale(0.7093107954374943) translate(-207.402 16.992)"></path>
      <path id="path5450" style="font-style: normal; font-weight: 500; font-size: 32px; line-height: 1; font-family: Raleway; font-variant-ligatures: none; text-align: center; text-anchor: middle; fill: rgb(28, 104, 244);" d="m 241.9555,0 h -2.816 v -9.344 q 0,-2.688 -0.832,-3.904 -0.8,-1.216 -2.464,-1.216 -0.864,0 -1.728,0.352 -0.864,0.32 -1.632,0.896 -0.768,0.576 -1.344,1.376 -0.576,0.8 -0.864,1.76 V 0 h -2.816 v -16.704 h 2.56 v 3.584 q 0.992,-1.76 2.848,-2.816 1.888,-1.056 4.096,-1.056 1.44,0 2.4,0.544 0.96,0.512 1.536,1.472 0.576,0.928 0.8,2.208 0.256,1.28 0.256,2.784 z" transform="translate(0 379.13390668956583) translate(299.27485520511357 61.627390963926096) scale(0.7093107954374943) translate(-227.4595 16.992)"></path>
      <path id="path5452" style="font-style: normal; font-weight: 500; font-size: 32px; line-height: 1; font-family: Raleway; font-variant-ligatures: none; text-align: center; text-anchor: middle; fill: rgb(28, 104, 244);" d="m 268.2515,-17.952 q -0.384,-0.448 -1.024,-0.864 -0.64,-0.416 -1.44,-0.736 -0.8,-0.352 -1.76,-0.544 -0.928,-0.224 -1.952,-0.224 -2.656,0 -3.904,0.992 -1.216,0.992 -1.216,2.72 0,0.928 0.352,1.536 0.352,0.608 1.088,1.056 0.768,0.416 1.888,0.736 1.12,0.32 2.656,0.672 1.76,0.384 3.168,0.896 1.44,0.48 2.432,1.216 1.024,0.736 1.536,1.792 0.544,1.056 0.544,2.592 0,1.632 -0.64,2.848 -0.64,1.184 -1.76,1.984 -1.088,0.768 -2.592,1.152 -1.504,0.352 -3.264,0.352 -2.624,0 -4.992,-0.8 -2.336,-0.832 -4.256,-2.4 l 1.376,-2.432 q 0.512,0.544 1.312,1.088 0.832,0.544 1.856,0.992 1.056,0.416 2.24,0.704 1.216,0.256 2.528,0.256 2.432,0 3.776,-0.864 1.344,-0.864 1.344,-2.592 0,-0.96 -0.448,-1.6 -0.416,-0.672 -1.248,-1.152 -0.832,-0.48 -2.08,-0.832 -1.216,-0.384 -2.784,-0.768 -1.728,-0.416 -3.04,-0.896 -1.312,-0.48 -2.208,-1.152 -0.864,-0.672 -1.312,-1.632 -0.448,-0.96 -0.448,-2.304 0,-1.632 0.608,-2.88 0.608,-1.248 1.696,-2.112 1.088,-0.864 2.592,-1.28 1.504,-0.448 3.264,-0.448 2.304,0 4.16,0.704 1.856,0.704 3.296,1.888 z" transform="translate(0 379.13390668956583) translate(318.1822437682954 57.45096900039013) scale(0.7093107954374943) translate(-253.1155 22.88)"></path>
      <path id="path5454" style="font-style: normal; font-weight: 500; font-size: 32px; line-height: 1; font-family: Raleway; font-variant-ligatures: none; text-align: center; text-anchor: middle; fill: rgb(28, 104, 244);" d="m 281.2555,0.32 q -1.888,0 -3.456,-0.704 -1.536,-0.704 -2.656,-1.888 -1.088,-1.184 -1.696,-2.752 -0.608,-1.568 -0.608,-3.296 0,-1.76 0.608,-3.328 0.64,-1.568 1.728,-2.752 1.12,-1.184 2.656,-1.888 1.568,-0.704 3.424,-0.704 1.856,0 3.424,0.704 1.568,0.704 2.656,1.888 1.12,1.184 1.728,2.752 0.64,1.568 0.64,3.328 0,1.728 -0.608,3.296 -0.608,1.568 -1.728,2.752 -1.12,1.184 -2.688,1.888 -1.536,0.704 -3.424,0.704 z m -5.536,-8.608 q 0,1.312 0.416,2.432 0.448,1.12 1.184,1.952 0.768,0.832 1.76,1.312 1.024,0.48 2.176,0.48 1.152,0 2.144,-0.48 1.024,-0.48 1.792,-1.312 0.768,-0.864 1.184,-1.984 0.448,-1.152 0.448,-2.464 0,-1.28 -0.448,-2.4 -0.416,-1.152 -1.184,-1.984 -0.768,-0.864 -1.792,-1.344 -0.992,-0.48 -2.144,-0.48 -1.152,0 -2.176,0.512 -0.992,0.48 -1.76,1.344 -0.736,0.832 -1.184,1.984 -0.416,1.12 -0.416,2.432 z" transform="translate(0 379.13390668956583) translate(332.88200069294203 61.627390963926096) scale(0.7093107954374943) translate(-272.8395 16.992)"></path>
      <path id="path5456" style="font-style: normal; font-weight: 500; font-size: 32px; line-height: 1; font-family: Raleway; font-variant-ligatures: none; text-align: center; text-anchor: middle; fill: rgb(28, 104, 244);" d="m 298.299,0.32 q -2.624,0 -3.968,-1.76 -1.344,-1.76 -1.344,-5.248 v -10.016 h 2.816 v 9.472 q 0,5.12 3.552,5.12 1.728,0 3.232,-1.088 1.536,-1.12 2.272,-3.04 v -10.464 h 2.816 v 13.248 q 0,0.992 0.896,1.024 V 0 q -0.48,0.064 -0.768,0.064 -0.256,0.032 -0.512,0.032 -0.832,0 -1.408,-0.48 -0.544,-0.512 -0.576,-1.248 l -0.064,-1.952 q -1.12,1.888 -2.944,2.912 -1.824,0.992 -4,0.992 z" transform="translate(0 379.13390668956583) translate(347.88215073945645 61.8316724730121) scale(0.7093107954374943) translate(-292.987 16.704)"></path>
      <path id="path5458" style="font-style: normal; font-weight: 500; font-size: 32px; line-height: 1; font-family: Raleway; font-variant-ligatures: none; text-align: center; text-anchor: middle; fill: rgb(28, 104, 244);" d="m 321.229,-14.24 q -2.112,0.064 -3.744,1.088 -1.6,1.024 -2.272,2.848 V 0 h -2.816 v -16.704 h 2.624 v 3.872 q 0.864,-1.728 2.272,-2.784 1.408,-1.088 3.008,-1.216 0.32,0 0.544,0 0.224,0 0.384,0.032 z" transform="translate(0 379.13390668956583) translate(362.3591840743357 61.7408806911961) scale(0.7093107954374943) translate(-312.397 16.832)"></path>
      <path id="path5460" style="font-style: normal; font-weight: 500; font-size: 32px; line-height: 1; font-family: Raleway; font-variant-ligatures: none; text-align: center; text-anchor: middle; fill: rgb(28, 104, 244);" d="m 322.527,-8.384 q 0,-1.76 0.608,-3.328 0.608,-1.568 1.728,-2.72 1.12,-1.184 2.656,-1.856 1.568,-0.704 3.488,-0.704 2.496,0 4.288,1.12 1.824,1.088 2.752,2.944 l -2.752,0.864 q -0.64,-1.184 -1.792,-1.824 -1.152,-0.672 -2.56,-0.672 -1.152,0 -2.176,0.48 -1.024,0.448 -1.76,1.28 -0.736,0.832 -1.184,1.952 -0.416,1.12 -0.416,2.464 0,1.312 0.448,2.464 0.448,1.152 1.184,2.016 0.768,0.832 1.76,1.312 1.024,0.48 2.176,0.48 0.736,0 1.44,-0.192 0.736,-0.224 1.312,-0.576 0.608,-0.352 1.056,-0.8 0.448,-0.48 0.64,-1.024 l 2.752,0.832 q -0.384,0.928 -1.088,1.696 -0.672,0.768 -1.6,1.312 -0.928,0.544 -2.08,0.864 -1.12,0.32 -2.368,0.32 -1.888,0 -3.456,-0.704 -1.568,-0.704 -2.688,-1.888 -1.12,-1.184 -1.76,-2.752 -0.608,-1.6 -0.608,-3.36 z" transform="translate(0 379.13390668956583) translate(370.25381322755504 61.627390963926096) scale(0.7093107954374943) translate(-322.527 16.992)"></path>
      <path id="path5462" style="font-style: normal; font-weight: 500; font-size: 32px; line-height: 1; font-family: Raleway; font-variant-ligatures: none; text-align: center; text-anchor: middle; fill: rgb(28, 104, 244);" d="m 348.6015,0.32 q -1.888,0 -3.456,-0.672 -1.568,-0.704 -2.688,-1.888 -1.12,-1.184 -1.76,-2.752 -0.608,-1.6 -0.608,-3.36 0,-1.76 0.608,-3.328 0.64,-1.568 1.76,-2.752 1.152,-1.184 2.72,-1.856 1.568,-0.704 3.456,-0.704 1.888,0 3.424,0.704 1.568,0.704 2.656,1.888 1.088,1.152 1.664,2.72 0.608,1.536 0.608,3.2 0,0.352 -0.032,0.64 0,0.288 -0.032,0.448 h -13.856 q 0.096,1.248 0.576,2.272 0.48,1.024 1.248,1.76 0.768,0.736 1.728,1.152 0.992,0.416 2.08,0.416 0.768,0 1.504,-0.192 0.736,-0.224 1.376,-0.576 0.64,-0.352 1.12,-0.864 0.512,-0.512 0.768,-1.152 l 2.432,0.672 q -0.416,0.928 -1.152,1.696 -0.704,0.768 -1.664,1.344 -0.928,0.544 -2.08,0.864 -1.152,0.32 -2.4,0.32 z m 5.728,-9.792 q -0.096,-1.184 -0.608,-2.176 -0.48,-1.024 -1.248,-1.728 -0.736,-0.704 -1.728,-1.088 -0.992,-0.416 -2.112,-0.416 -1.12,0 -2.112,0.416 -0.992,0.384 -1.76,1.12 -0.736,0.704 -1.216,1.696 -0.448,0.992 -0.544,2.176 z" transform="translate(0 379.13390668956583) translate(383.4203948678635 61.627390963926096) scale(0.7093107954374943) translate(-340.0895 16.992)"></path>
      <path id="path5464" style="font-style: normal; font-weight: 500; font-size: 32px; line-height: 1; font-family: Raleway; font-variant-ligatures: none; text-align: center; text-anchor: middle; fill: rgb(28, 104, 244);" d="m 368.72,0 v -22.72 h 9.472 q 1.504,0 2.752,0.64 1.28,0.608 2.176,1.664 0.928,1.024 1.44,2.336 0.512,1.28 0.512,2.624 0,1.408 -0.48,2.72 -0.48,1.312 -1.376,2.336 -0.864,1.024 -2.112,1.632 -1.216,0.608 -2.72,0.608 H 371.6 V 0 Z m 2.88,-10.72 h 6.624 q 0.896,0 1.6,-0.352 0.736,-0.384 1.248,-1.024 0.512,-0.672 0.8,-1.536 0.288,-0.864 0.288,-1.824 0,-0.992 -0.352,-1.856 -0.32,-0.864 -0.896,-1.504 -0.544,-0.64 -1.312,-0.992 -0.736,-0.352 -1.568,-0.352 H 371.6 Z" transform="translate(0 379.13390668956583) translate(404.43762839207415 57.56445872766013) scale(0.7093107954374943) translate(-368.72 22.72)"></path>
      <path id="path5466" style="font-style: normal; font-weight: 500; font-size: 32px; line-height: 1; font-family: Raleway; font-variant-ligatures: none; text-align: center; text-anchor: middle; fill: rgb(28, 104, 244);" d="m 397.0415,-14.24 q -2.112,0.064 -3.744,1.088 -1.6,1.024 -2.272,2.848 V 0 h -2.816 v -16.704 h 2.624 v 3.872 q 0.864,-1.728 2.272,-2.784 1.408,-1.088 3.008,-1.216 0.32,0 0.544,0 0.224,0 0.384,0.032 z" transform="translate(0 379.13390668956583) translate(418.9710519351907 61.7408806911961) scale(0.7093107954374943) translate(-388.2095 16.832)"></path>
      <path id="path5468" style="font-style: normal; font-weight: 500; font-size: 32px; line-height: 1; font-family: Raleway; font-variant-ligatures: none; text-align: center; text-anchor: middle; fill: rgb(28, 104, 244);" d="m 406.7555,0.32 q -1.888,0 -3.456,-0.704 -1.536,-0.704 -2.656,-1.888 -1.088,-1.184 -1.696,-2.752 -0.608,-1.568 -0.608,-3.296 0,-1.76 0.608,-3.328 0.64,-1.568 1.728,-2.752 1.12,-1.184 2.656,-1.888 1.568,-0.704 3.424,-0.704 1.856,0 3.424,0.704 1.568,0.704 2.656,1.888 1.12,1.184 1.728,2.752 0.64,1.568 0.64,3.328 0,1.728 -0.608,3.296 -0.608,1.568 -1.728,2.752 -1.12,1.184 -2.688,1.888 -1.536,0.704 -3.424,0.704 z m -5.536,-8.608 q 0,1.312 0.416,2.432 0.448,1.12 1.184,1.952 0.768,0.832 1.76,1.312 1.024,0.48 2.176,0.48 1.152,0 2.144,-0.48 1.024,-0.48 1.792,-1.312 0.768,-0.864 1.184,-1.984 0.448,-1.152 0.448,-2.464 0,-1.28 -0.448,-2.4 -0.416,-1.152 -1.184,-1.984 -0.768,-0.864 -1.792,-1.344 -0.992,-0.48 -2.144,-0.48 -1.152,0 -2.176,0.512 -0.992,0.48 -1.76,1.344 -0.736,0.832 -1.184,1.984 -0.416,1.12 -0.416,2.432 z" transform="translate(0 379.13390668956583) translate(426.86568108841004 61.627390963926096) scale(0.7093107954374943) translate(-398.3395 16.992)"></path>
      <path id="path5470" style="font-style: normal; font-weight: 500; font-size: 32px; line-height: 1; font-family: Raleway; font-variant-ligatures: none; text-align: center; text-anchor: middle; fill: rgb(28, 104, 244);" d="m 416.503,5.952 q -1.12,0 -2.08,-0.32 -0.992,-0.32 -1.76,-1.024 l 1.312,-1.888 q 0.448,0.416 1.056,0.576 0.576,0.16 1.152,0.16 0.512,0 0.992,-0.224 0.48,-0.192 0.864,-0.544 0.384,-0.352 0.608,-0.864 0.224,-0.512 0.224,-1.088 v -17.44 h 2.816 V 0.544 q 0,1.184 -0.448,2.176 -0.416,0.992 -1.152,1.696 -0.704,0.736 -1.632,1.12 -0.928,0.416 -1.952,0.416 z m 2.368,-25.792 v -3.52 h 2.816 v 3.52 z" transform="translate(0 379.13390668956583) translate(437.7348050622965 57.11049981858013) scale(0.7093107954374943) translate(-412.663 23.36)"></path>
      <path id="path5472" style="font-style: normal; font-weight: 500; font-size: 32px; line-height: 1; font-family: Raleway; font-variant-ligatures: none; text-align: center; text-anchor: middle; fill: rgb(28, 104, 244);" d="m 433.6015,0.32 q -1.888,0 -3.456,-0.672 -1.568,-0.704 -2.688,-1.888 -1.12,-1.184 -1.76,-2.752 -0.608,-1.6 -0.608,-3.36 0,-1.76 0.608,-3.328 0.64,-1.568 1.76,-2.752 1.152,-1.184 2.72,-1.856 1.568,-0.704 3.456,-0.704 1.888,0 3.424,0.704 1.568,0.704 2.656,1.888 1.088,1.152 1.664,2.72 0.608,1.536 0.608,3.2 0,0.352 -0.032,0.64 0,0.288 -0.032,0.448 h -13.856 q 0.096,1.248 0.576,2.272 0.48,1.024 1.248,1.76 0.768,0.736 1.728,1.152 0.992,0.416 2.08,0.416 0.768,0 1.504,-0.192 0.736,-0.224 1.376,-0.576 0.64,-0.352 1.12,-0.864 0.512,-0.512 0.768,-1.152 l 2.432,0.672 q -0.416,0.928 -1.152,1.696 -0.704,0.768 -1.664,1.344 -0.928,0.544 -2.08,0.864 -1.152,0.32 -2.4,0.32 z m 5.728,-9.792 q -0.096,-1.184 -0.608,-2.176 -0.48,-1.024 -1.248,-1.728 -0.736,-0.704 -1.728,-1.088 -0.992,-0.416 -2.112,-0.416 -1.12,0 -2.112,0.416 -0.992,0.384 -1.76,1.12 -0.736,0.704 -1.216,1.696 -0.448,0.992 -0.544,2.176 z" transform="translate(0 379.13390668956583) translate(447.25836645723797 61.627390963926096) scale(0.7093107954374943) translate(-425.0895 16.992)"></path>
      <path id="path5474" style="font-style: normal; font-weight: 500; font-size: 32px; line-height: 1; font-family: Raleway; font-variant-ligatures: none; text-align: center; text-anchor: middle; fill: rgb(28, 104, 244);" d="m 444.027,-8.384 q 0,-1.76 0.608,-3.328 0.608,-1.568 1.728,-2.72 1.12,-1.184 2.656,-1.856 1.568,-0.704 3.488,-0.704 2.496,0 4.288,1.12 1.824,1.088 2.752,2.944 l -2.752,0.864 q -0.64,-1.184 -1.792,-1.824 -1.152,-0.672 -2.56,-0.672 -1.152,0 -2.176,0.48 -1.024,0.448 -1.76,1.28 -0.736,0.832 -1.184,1.952 -0.416,1.12 -0.416,2.464 0,1.312 0.448,2.464 0.448,1.152 1.184,2.016 0.768,0.832 1.76,1.312 1.024,0.48 2.176,0.48 0.736,0 1.44,-0.192 0.736,-0.224 1.312,-0.576 0.608,-0.352 1.056,-0.8 0.448,-0.48 0.64,-1.024 l 2.752,0.832 q -0.384,0.928 -1.088,1.696 -0.672,0.768 -1.6,1.312 -0.928,0.544 -2.08,0.864 -1.12,0.32 -2.368,0.32 -1.888,0 -3.456,-0.704 -1.568,-0.704 -2.688,-1.888 -1.12,-1.184 -1.76,-2.752 -0.608,-1.6 -0.608,-3.36 z" transform="translate(0 379.13390668956583) translate(461.400250441273 61.627390963926096) scale(0.7093107954374943) translate(-444.027 16.992)"></path>
      <path id="path5476" style="font-style: normal; font-weight: 500; font-size: 32px; line-height: 1; font-family: Raleway; font-variant-ligatures: none; text-align: center; text-anchor: middle; fill: rgb(28, 104, 244);" d="m 471.537,-0.832 q -0.256,0.128 -0.672,0.32 -0.416,0.16 -0.96,0.352 -0.512,0.16 -1.152,0.256 -0.608,0.128 -1.28,0.128 -1.536,0 -2.656,-0.832 -1.12,-0.864 -1.12,-2.656 v -11.232 h -2.272 v -2.208 h 2.272 v -5.568 h 2.816 v 5.568 h 3.744 v 2.208 h -3.744 v 10.368 q 0.064,0.928 0.608,1.344 0.544,0.416 1.28,0.416 0.832,0 1.504,-0.256 0.704,-0.288 0.96,-0.448 z" transform="translate(0 379.13390668956583) translate(474.450150455732 57.882229964016126) scale(0.7093107954374943) translate(-461.425 22.272)"></path>
      <path id="path5478" style="font-style: normal; font-weight: 500; font-size: 32px; line-height: 1; font-family: Raleway; font-variant-ligatures: none; text-align: center; text-anchor: middle; fill: rgb(28, 104, 244);" d="m 480.003,0.32 q -2.016,0 -3.968,-0.608 -1.952,-0.64 -3.36,-1.824 L 473.891,-4 q 1.472,1.12 2.944,1.696 1.472,0.544 3.104,0.544 1.824,0 2.88,-0.704 1.088,-0.736 1.088,-2.048 0,-0.608 -0.288,-1.024 -0.288,-0.448 -0.864,-0.768 -0.576,-0.32 -1.472,-0.576 -0.896,-0.256 -2.08,-0.544 -1.504,-0.384 -2.592,-0.736 -1.088,-0.352 -1.792,-0.832 -0.704,-0.48 -1.024,-1.152 -0.32,-0.672 -0.32,-1.664 0,-1.248 0.48,-2.208 0.512,-0.992 1.376,-1.632 0.864,-0.672 2.016,-0.992 1.184,-0.352 2.528,-0.352 1.888,0 3.52,0.608 1.632,0.608 2.752,1.6 l -1.28,1.696 q -1.056,-0.928 -2.368,-1.376 -1.312,-0.48 -2.688,-0.48 -1.536,0 -2.624,0.672 -1.056,0.64 -1.056,2.08 0,0.576 0.192,0.96 0.224,0.384 0.704,0.672 0.48,0.288 1.216,0.512 0.768,0.224 1.824,0.48 1.664,0.384 2.88,0.8 1.248,0.384 2.048,0.928 0.832,0.544 1.216,1.28 0.416,0.736 0.416,1.792 0,2.336 -1.792,3.712 -1.792,1.376 -4.832,1.376 z" transform="translate(0 379.13390668956583) translate(483.1392076998413 61.627390963926096) scale(0.7093107954374943) translate(-472.675 16.992)"></path>
      <path id="path5480" style="font-style: normal; font-weight: 500; font-size: 32px; line-height: 1; font-family: Raleway; font-variant-ligatures: none; text-align: center; text-anchor: middle; fill: rgb(28, 104, 244);" d="m 507.7485,0.16 q -2.4,0 -4.384,-0.96 -1.952,-0.992 -3.36,-2.592 -1.408,-1.632 -2.176,-3.712 -0.768,-2.08 -0.768,-4.256 0,-2.272 0.8,-4.352 0.832,-2.08 2.272,-3.68 1.44,-1.6 3.392,-2.528 1.984,-0.96 4.288,-0.96 2.4,0 4.352,1.024 1.952,0.992 3.36,2.624 1.408,1.632 2.176,3.712 0.768,2.048 0.768,4.192 0,2.272 -0.832,4.352 -0.8,2.08 -2.24,3.68 -1.408,1.568 -3.392,2.528 -1.952,0.928 -4.256,0.928 z m -7.776,-11.52 q 0,1.728 0.544,3.36 0.576,1.6 1.6,2.848 1.024,1.248 2.464,1.984 1.44,0.736 3.2,0.736 1.824,0 3.264,-0.768 1.44,-0.8 2.432,-2.048 1.024,-1.28 1.536,-2.88 0.544,-1.6 0.544,-3.232 0,-1.728 -0.576,-3.328 -0.544,-1.632 -1.6,-2.848 -1.024,-1.248 -2.464,-1.984 -1.408,-0.736 -3.136,-0.736 -1.824,0 -3.264,0.768 -1.44,0.768 -2.464,2.016 -0.992,1.248 -1.536,2.848 -0.544,1.6 -0.544,3.264 z" transform="translate(0 379.13390668956583) translate(501.14541689741975 57.45096900039013) scale(0.7093107954374943) translate(-497.0605 22.88)"></path>
      <path id="path5482" style="font-style: normal; font-weight: 500; font-size: 32px; line-height: 1; font-family: Raleway; font-variant-ligatures: none; text-align: center; text-anchor: middle; fill: rgb(28, 104, 244);" d="m 522.918,0 v -14.496 h -2.272 v -2.208 h 2.272 v -0.352 q 0,-3.104 1.376,-4.864 1.376,-1.76 3.744,-1.76 0.992,0 1.952,0.288 0.96,0.256 1.728,0.736 l -0.704,2.08 q -0.448,-0.32 -1.12,-0.512 -0.64,-0.192 -1.28,-0.192 -1.408,0 -2.144,1.056 -0.736,1.056 -0.736,3.072 v 0.448 h 4.448 v 2.208 h -4.448 V 0 Z" transform="translate(0 379.13390668956583) translate(518.5841774586482 56.88352036404013) scale(0.7093107954374943) translate(-520.646 23.68)"></path>
      <path id="path5484" style="font-style: normal; font-weight: 500; font-size: 32px; line-height: 1; font-family: Raleway; font-variant-ligatures: none; text-align: center; text-anchor: middle; fill: rgb(28, 104, 244);" d="m 556.354,-20.16 h -7.84 V 0 h -2.88 v -20.16 h -7.84 v -2.56 h 18.56 z" transform="translate(0 379.13390668956583) translate(531.4567497742479 57.56445872766013) scale(0.7093107954374943) translate(-537.794 22.72)"></path>
      <path id="path5486" style="font-style: normal; font-weight: 500; font-size: 32px; line-height: 1; font-family: Raleway; font-variant-ligatures: none; text-align: center; text-anchor: middle; fill: rgb(28, 104, 244);" d="m 573.643,0 h -2.816 v -9.344 q 0,-2.592 -0.896,-3.84 -0.896,-1.28 -2.624,-1.28 -0.832,0 -1.664,0.352 -0.832,0.32 -1.568,0.896 -0.704,0.576 -1.28,1.376 -0.544,0.8 -0.832,1.76 V 0 h -2.816 v -23.36 h 2.816 v 10.24 q 0.992,-1.824 2.688,-2.848 1.696,-1.024 3.712,-1.024 1.472,0 2.496,0.544 1.024,0.544 1.632,1.472 0.608,0.928 0.864,2.24 0.288,1.28 0.288,2.752 z" transform="translate(0 379.13390668956583) translate(547.3119739846624 57.11049981858013) scale(0.7093107954374943) translate(-559.147 23.36)"></path>
      <path id="path5488" style="font-style: normal; font-weight: 500; font-size: 32px; line-height: 1; font-family: Raleway; font-variant-ligatures: none; text-align: center; text-anchor: middle; fill: rgb(28, 104, 244);" d="m 585.414,0.32 q -1.888,0 -3.456,-0.672 -1.568,-0.704 -2.688,-1.888 -1.12,-1.184 -1.76,-2.752 -0.608,-1.6 -0.608,-3.36 0,-1.76 0.608,-3.328 0.64,-1.568 1.76,-2.752 1.152,-1.184 2.72,-1.856 1.568,-0.704 3.456,-0.704 1.888,0 3.424,0.704 1.568,0.704 2.656,1.888 1.088,1.152 1.664,2.72 0.608,1.536 0.608,3.2 0,0.352 -0.032,0.64 0,0.288 -0.032,0.448 h -13.856 q 0.096,1.248 0.576,2.272 0.48,1.024 1.248,1.76 0.768,0.736 1.728,1.152 0.992,0.416 2.08,0.416 0.768,0 1.504,-0.192 0.736,-0.224 1.376,-0.576 0.64,-0.352 1.12,-0.864 0.512,-0.512 0.768,-1.152 l 2.432,0.672 q -0.416,0.928 -1.152,1.696 -0.704,0.768 -1.664,1.344 -0.928,0.544 -2.08,0.864 -1.152,0.32 -2.4,0.32 z m 5.728,-9.792 q -0.096,-1.184 -0.608,-2.176 -0.48,-1.024 -1.248,-1.728 -0.736,-0.704 -1.728,-1.088 -0.992,-0.416 -2.112,-0.416 -1.12,0 -2.112,0.416 -0.992,0.384 -1.76,1.12 -0.736,0.704 -1.216,1.696 -0.448,0.992 -0.544,2.176 z" transform="translate(0 379.13390668956583) translate(560.6150979530926 61.627390963926096) scale(0.7093107954374943) translate(-576.902 16.992)"></path>
      <path id="path5490" style="font-style: normal; font-weight: 500; font-size: 32px; line-height: 1; font-family: Raleway; font-variant-ligatures: none; text-align: center; text-anchor: middle; fill: rgb(28, 104, 244);" d="m 612.7275,-22.592 h 2.72 l 3.008,7.904 3.04,-7.904 h 2.72 l -3.936,9.888 3.904,9.376 7.68,-19.392 h 3.136 L 625.4955,0 h -2.496 l -4.512,-10.72 -4.544,10.72 h -2.496 l -9.472,-22.72 h 3.104 l 7.712,19.392 3.872,-9.376 z" transform="translate(0 379.13390668956583) translate(579.1093129779322 57.56445872766013) scale(0.7093107954374943) translate(-601.9755 22.72)"></path>
      <path id="path5492" style="font-style: normal; font-weight: 500; font-size: 32px; line-height: 1; font-family: Raleway; font-variant-ligatures: none; text-align: center; text-anchor: middle; fill: rgb(28, 104, 244);" d="m 642.7265,0.32 q -1.888,0 -3.456,-0.672 -1.568,-0.704 -2.688,-1.888 -1.12,-1.184 -1.76,-2.752 -0.608,-1.6 -0.608,-3.36 0,-1.76 0.608,-3.328 0.64,-1.568 1.76,-2.752 1.152,-1.184 2.72,-1.856 1.568,-0.704 3.456,-0.704 1.888,0 3.424,0.704 1.568,0.704 2.656,1.888 1.088,1.152 1.664,2.72 0.608,1.536 0.608,3.2 0,0.352 -0.032,0.64 0,0.288 -0.032,0.448 h -13.856 q 0.096,1.248 0.576,2.272 0.48,1.024 1.248,1.76 0.768,0.736 1.728,1.152 0.992,0.416 2.08,0.416 0.768,0 1.504,-0.192 0.736,-0.224 1.376,-0.576 0.64,-0.352 1.12,-0.864 0.512,-0.512 0.768,-1.152 l 2.432,0.672 q -0.416,0.928 -1.152,1.696 -0.704,0.768 -1.664,1.344 -0.928,0.544 -2.08,0.864 -1.152,0.32 -2.4,0.32 z m 5.728,-9.792 q -0.096,-1.184 -0.608,-2.176 -0.48,-1.024 -1.248,-1.728 -0.736,-0.704 -1.728,-1.088 -0.992,-0.416 -2.112,-0.416 -1.12,0 -2.112,0.416 -0.992,0.384 -1.76,1.12 -0.736,0.704 -1.216,1.696 -0.448,0.992 -0.544,2.176 z" transform="translate(0 379.13390668956583) translate(602.6860945074791 61.627390963926096) scale(0.7093107954374943) translate(-634.2145 16.992)"></path>
      <path id="path5494" style="font-style: normal; font-weight: 500; font-size: 32px; line-height: 1; font-family: Raleway; font-variant-ligatures: none; text-align: center; text-anchor: middle; fill: rgb(28, 104, 244);" d="m 661.664,0.32 q -1.888,0 -3.456,-0.672 -1.568,-0.704 -2.688,-1.888 -1.12,-1.184 -1.76,-2.752 -0.608,-1.6 -0.608,-3.36 0,-1.76 0.608,-3.328 0.64,-1.568 1.76,-2.752 1.152,-1.184 2.72,-1.856 1.568,-0.704 3.456,-0.704 1.888,0 3.424,0.704 1.568,0.704 2.656,1.888 1.088,1.152 1.664,2.72 0.608,1.536 0.608,3.2 0,0.352 -0.032,0.64 0,0.288 -0.032,0.448 h -13.856 q 0.096,1.248 0.576,2.272 0.48,1.024 1.248,1.76 0.768,0.736 1.728,1.152 0.992,0.416 2.08,0.416 0.768,0 1.504,-0.192 0.736,-0.224 1.376,-0.576 0.64,-0.352 1.12,-0.864 0.512,-0.512 0.768,-1.152 l 2.432,0.672 q -0.416,0.928 -1.152,1.696 -0.704,0.768 -1.664,1.344 -0.928,0.544 -2.08,0.864 -1.152,0.32 -2.4,0.32 z m 5.728,-9.792 q -0.096,-1.184 -0.608,-2.176 -0.48,-1.024 -1.248,-1.728 -0.736,-0.704 -1.728,-1.088 -0.992,-0.416 -2.112,-0.416 -1.12,0 -2.112,0.416 -0.992,0.384 -1.76,1.12 -0.736,0.704 -1.216,1.696 -0.448,0.992 -0.544,2.176 z" transform="translate(0 379.13390668956583) translate(616.8279784915142 61.627390963926096) scale(0.7093107954374943) translate(-653.152 16.992)"></path>
      <path id="path5496" style="font-style: normal; font-weight: 500; font-size: 32px; line-height: 1; font-family: Raleway; font-variant-ligatures: none; text-align: center; text-anchor: middle; fill: rgb(28, 104, 244);" d="m 684.9855,0 -5.76,-8.16 -3.2,3.008 V 0 h -2.816 v -23.36 h 2.816 V -8 l 8.576,-8.672 h 3.104 l -6.656,6.912 6.976,9.76 z" transform="translate(0 379.13390668956583) translate(631.7642905664393 57.11049981858013) scale(0.7093107954374943) translate(-673.2095 23.36)"></path>
      <path id="path5498" style="font-style: normal; font-weight: 500; font-size: 32px; line-height: 1; font-family: Raleway; font-variant-ligatures: none; text-align: center; text-anchor: middle; fill: rgb(28, 104, 244);" d="M 701.9125,-17.344 V 0 h -2.88 v -22.72 h 2.24 l 14.08,17.696 v -17.664 h 2.88 V 0 h -2.432 z" transform="translate(0 379.13390668956583) translate(650.7901340324593 57.56445872766013) scale(0.7093107954374943) translate(-699.0325 22.72)"></path>
      <path id="path5500" style="font-style: normal; font-weight: 500; font-size: 32px; line-height: 1; font-family: Raleway; font-variant-ligatures: none; text-align: center; text-anchor: middle; fill: rgb(28, 104, 244);" d="m 730.289,0.32 q -1.888,0 -3.456,-0.672 -1.568,-0.704 -2.688,-1.888 -1.12,-1.184 -1.76,-2.752 -0.608,-1.6 -0.608,-3.36 0,-1.76 0.608,-3.328 0.64,-1.568 1.76,-2.752 1.152,-1.184 2.72,-1.856 1.568,-0.704 3.456,-0.704 1.888,0 3.424,0.704 1.568,0.704 2.656,1.888 1.088,1.152 1.664,2.72 0.608,1.536 0.608,3.2 0,0.352 -0.032,0.64 0,0.288 -0.032,0.448 h -13.856 q 0.096,1.248 0.576,2.272 0.48,1.024 1.248,1.76 0.768,0.736 1.728,1.152 0.992,0.416 2.08,0.416 0.768,0 1.504,-0.192 0.736,-0.224 1.376,-0.576 0.64,-0.352 1.12,-0.864 0.512,-0.512 0.768,-1.152 l 2.432,0.672 q -0.416,0.928 -1.152,1.696 -0.704,0.768 -1.664,1.344 -0.928,0.544 -2.08,0.864 -1.152,0.32 -2.4,0.32 z m 5.728,-9.792 q -0.096,-1.184 -0.608,-2.176 -0.48,-1.024 -1.248,-1.728 -0.736,-0.704 -1.728,-1.088 -0.992,-0.416 -2.112,-0.416 -1.12,0 -2.112,0.416 -0.992,0.384 -1.76,1.12 -0.736,0.704 -1.216,1.696 -0.448,0.992 -0.544,2.176 z" transform="translate(0 379.13390668956583) translate(667.6323642147248 61.627390963926096) scale(0.7093107954374943) translate(-721.777 16.992)"></path>
      <path id="path5502" style="font-style: normal; font-weight: 500; font-size: 32px; line-height: 1; font-family: Raleway; font-variant-ligatures: none; text-align: center; text-anchor: middle; fill: rgb(28, 104, 244);" d="m 762.325,-16.704 h 2.72 L 757.941,0 h -2.336 l -3.36,-8.16 -3.328,8.16 h -2.336 l -7.104,-16.704 h 2.688 l 5.76,13.92 2.816,-6.944 -2.88,-6.944 h 2.336 l 2.048,5.344 2.048,-5.344 h 2.336 l -2.848,6.944 2.816,6.944 z" transform="translate(0 379.13390668956583) translate(680.896476089406 61.8316724730121) scale(0.7093107954374943) translate(-739.477 16.704)"></path>
      <path id="path5504" style="font-style: normal; font-weight: 500; font-size: 32px; line-height: 1; font-family: Raleway; font-variant-ligatures: none; text-align: center; text-anchor: middle; fill: rgb(28, 104, 244);" d="m 773.0655,0.32 q -2.016,0 -3.968,-0.608 -1.952,-0.64 -3.36,-1.824 L 766.9535,-4 q 1.472,1.12 2.944,1.696 1.472,0.544 3.104,0.544 1.824,0 2.88,-0.704 1.088,-0.736 1.088,-2.048 0,-0.608 -0.288,-1.024 -0.288,-0.448 -0.864,-0.768 -0.576,-0.32 -1.472,-0.576 -0.896,-0.256 -2.08,-0.544 -1.504,-0.384 -2.592,-0.736 -1.088,-0.352 -1.792,-0.832 -0.704,-0.48 -1.024,-1.152 -0.32,-0.672 -0.32,-1.664 0,-1.248 0.48,-2.208 0.512,-0.992 1.376,-1.632 0.864,-0.672 2.016,-0.992 1.184,-0.352 2.528,-0.352 1.888,0 3.52,0.608 1.632,0.608 2.752,1.6 l -1.28,1.696 q -1.056,-0.928 -2.368,-1.376 -1.312,-0.48 -2.688,-0.48 -1.536,0 -2.624,0.672 -1.056,0.64 -1.056,2.08 0,0.576 0.192,0.96 0.224,0.384 0.704,0.672 0.48,0.288 1.216,0.512 0.768,0.224 1.824,0.48 1.664,0.384 2.88,0.8 1.248,0.384 2.048,0.928 0.832,0.544 1.216,1.28 0.416,0.736 0.416,1.792 0,2.336 -1.792,3.712 -1.792,1.376 -4.832,1.376 z" transform="translate(0 379.13390668956583) translate(700.2326430284297 61.627390963926096) scale(0.7093107954374943) translate(-765.7375 16.992)"></path>
      <path id="path5506" style="font-style: normal; font-weight: 500; font-size: 32px; line-height: 1; font-family: Raleway; font-variant-ligatures: none; text-align: center; text-anchor: middle; fill: rgb(28, 104, 244);" d="m 783.086,-23.36 h 2.816 v 19.04 q 0,0.928 0.48,1.472 0.512,0.512 1.408,0.512 0.352,0 0.832,-0.096 0.48,-0.128 0.896,-0.288 l 0.448,2.272 q -0.704,0.288 -1.664,0.48 -0.96,0.192 -1.696,0.192 -1.632,0 -2.592,-0.928 -0.928,-0.928 -0.928,-2.592 z" transform="translate(0 379.13390668956583) translate(713.2474321585146 57.11049981858013) scale(0.7093107954374943) translate(-783.086 23.36)"></path>
      <path id="path5508" style="font-style: normal; font-weight: 500; font-size: 32px; line-height: 1; font-family: Raleway; font-variant-ligatures: none; text-align: center; text-anchor: middle; fill: rgb(28, 104, 244);" d="m 799.539,0.32 q -1.888,0 -3.456,-0.672 -1.568,-0.704 -2.688,-1.888 -1.12,-1.184 -1.76,-2.752 -0.608,-1.6 -0.608,-3.36 0,-1.76 0.608,-3.328 0.64,-1.568 1.76,-2.752 1.152,-1.184 2.72,-1.856 1.568,-0.704 3.456,-0.704 1.888,0 3.424,0.704 1.568,0.704 2.656,1.888 1.088,1.152 1.664,2.72 0.608,1.536 0.608,3.2 0,0.352 -0.032,0.64 0,0.288 -0.032,0.448 h -13.856 q 0.096,1.248 0.576,2.272 0.48,1.024 1.248,1.76 0.768,0.736 1.728,1.152 0.992,0.416 2.08,0.416 0.768,0 1.504,-0.192 0.736,-0.224 1.376,-0.576 0.64,-0.352 1.12,-0.864 0.512,-0.512 0.768,-1.152 l 2.432,0.672 q -0.416,0.928 -1.152,1.696 -0.704,0.768 -1.664,1.344 -0.928,0.544 -2.08,0.864 -1.152,0.32 -2.4,0.32 z m 5.728,-9.792 q -0.096,-1.184 -0.608,-2.176 -0.48,-1.024 -1.248,-1.728 -0.736,-0.704 -1.728,-1.088 -0.992,-0.416 -2.112,-0.416 -1.12,0 -2.112,0.416 -0.992,0.384 -1.76,1.12 -0.736,0.704 -1.216,1.696 -0.448,0.992 -0.544,2.176 z" transform="translate(0 379.13390668956583) translate(719.5893799805212 61.627390963926096) scale(0.7093107954374943) translate(-791.027 16.992)"></path>
      <path id="path5510" style="font-style: normal; font-weight: 500; font-size: 32px; line-height: 1; font-family: Raleway; font-variant-ligatures: none; text-align: center; text-anchor: middle; fill: rgb(28, 104, 244);" d="m 819.537,-0.832 q -0.256,0.128 -0.672,0.32 -0.416,0.16 -0.96,0.352 -0.512,0.16 -1.152,0.256 -0.608,0.128 -1.28,0.128 -1.536,0 -2.656,-0.832 -1.12,-0.864 -1.12,-2.656 v -11.232 h -2.272 v -2.208 h 2.272 v -5.568 h 2.816 v 5.568 h 3.744 v 2.208 h -3.744 v 10.368 q 0.064,0.928 0.608,1.344 0.544,0.416 1.28,0.416 0.832,0 1.504,-0.256 0.704,-0.288 0.96,-0.448 z" transform="translate(0 379.13390668956583) translate(733.3485907904178 57.882229964016126) scale(0.7093107954374943) translate(-809.425 22.272)"></path>
      <path id="path5512" style="font-style: normal; font-weight: 500; font-size: 32px; line-height: 1; font-family: Raleway; font-variant-ligatures: none; text-align: center; text-anchor: middle; fill: rgb(28, 104, 244);" d="m 830.787,-0.832 q -0.256,0.128 -0.672,0.32 -0.416,0.16 -0.96,0.352 -0.512,0.16 -1.152,0.256 -0.608,0.128 -1.28,0.128 -1.536,0 -2.656,-0.832 -1.12,-0.864 -1.12,-2.656 v -11.232 h -2.272 v -2.208 h 2.272 v -5.568 h 2.816 v 5.568 h 3.744 v 2.208 h -3.744 v 10.368 q 0.064,0.928 0.608,1.344 0.544,0.416 1.28,0.416 0.832,0 1.504,-0.256 0.704,-0.288 0.96,-0.448 z" transform="translate(0 379.13390668956583) translate(742.0376480345271 57.882229964016126) scale(0.7093107954374943) translate(-820.675 22.272)"></path>
      <path id="path5514" style="font-style: normal; font-weight: 500; font-size: 32px; line-height: 1; font-family: Raleway; font-variant-ligatures: none; text-align: center; text-anchor: middle; fill: rgb(28, 104, 244);" d="m 840.539,0.32 q -1.888,0 -3.456,-0.672 -1.568,-0.704 -2.688,-1.888 -1.12,-1.184 -1.76,-2.752 -0.608,-1.6 -0.608,-3.36 0,-1.76 0.608,-3.328 0.64,-1.568 1.76,-2.752 1.152,-1.184 2.72,-1.856 1.568,-0.704 3.456,-0.704 1.888,0 3.424,0.704 1.568,0.704 2.656,1.888 1.088,1.152 1.664,2.72 0.608,1.536 0.608,3.2 0,0.352 -0.032,0.64 0,0.288 -0.032,0.448 h -13.856 q 0.096,1.248 0.576,2.272 0.48,1.024 1.248,1.76 0.768,0.736 1.728,1.152 0.992,0.416 2.08,0.416 0.768,0 1.504,-0.192 0.736,-0.224 1.376,-0.576 0.64,-0.352 1.12,-0.864 0.512,-0.512 0.768,-1.152 l 2.432,0.672 q -0.416,0.928 -1.152,1.696 -0.704,0.768 -1.664,1.344 -0.928,0.544 -2.08,0.864 -1.152,0.32 -2.4,0.32 z m 5.728,-9.792 q -0.096,-1.184 -0.608,-2.176 -0.48,-1.024 -1.248,-1.728 -0.736,-0.704 -1.728,-1.088 -0.992,-0.416 -2.112,-0.416 -1.12,0 -2.112,0.416 -0.992,0.384 -1.76,1.12 -0.736,0.704 -1.216,1.696 -0.448,0.992 -0.544,2.176 z" transform="translate(0 379.13390668956583) translate(750.7990549797712 61.627390963926096) scale(0.7093107954374943) translate(-832.027 16.992)"></path>
      <path id="path5516" style="font-style: normal; font-weight: 500; font-size: 32px; line-height: 1; font-family: Raleway; font-variant-ligatures: none; text-align: center; text-anchor: middle; fill: rgb(28, 104, 244);" d="m 860.9165,-14.24 q -2.112,0.064 -3.744,1.088 -1.6,1.024 -2.272,2.848 V 0 h -2.816 v -16.704 h 2.624 v 3.872 q 0.864,-1.728 2.272,-2.784 1.408,-1.088 3.008,-1.216 0.32,0 0.544,0 0.224,0 0.384,0.032 z" transform="translate(0 379.13390668956583) translate(765.7353670546963 61.7408806911961) scale(0.7093107954374943) translate(-852.0845 16.832)"></path>
    </g>
  </g>
</svg>
